# Blender v2.90.1 OBJ File: 'House Model+background.blend'
# www.blender.org
mtllib HouseWalls.mtl
o House_Cube.008
v -38.285473 -15.738783 -0.979169
v -38.285473 22.561216 -0.979169
v 38.574528 -15.738783 -0.979170
v 38.574528 22.561216 -0.979170
v -38.285473 -15.738783 2.834211
v -38.285473 22.561216 2.834211
v 38.574528 -15.738783 2.834210
v 38.574528 22.561216 2.834210
v -35.989841 -15.738781 -63.079132
v -35.989841 22.561218 -63.079132
v -35.989841 -15.738781 2.510997
v -35.989841 22.561218 2.510997
v -38.277340 -15.738781 -63.079132
v -38.277340 22.561218 -63.079132
v -38.277340 -15.738781 2.510997
v -38.277340 22.561218 2.510997
v 38.580570 -15.738781 -62.852787
v 38.580570 22.561218 -62.852787
v 38.580570 -15.738781 2.737342
v 38.580570 22.561218 2.737342
v 36.293068 -15.738781 -62.852787
v 36.293068 22.561218 -62.852787
v 36.293072 -15.738781 2.737342
v 36.293072 22.561218 2.737342
v 38.588696 -15.738781 -59.362614
v 38.588696 22.561218 -59.362614
v -38.271305 -15.738781 -59.362606
v -38.271305 22.561218 -59.362606
v 38.588696 -15.738781 -63.175995
v 38.588696 22.561218 -63.175995
v -38.271305 -15.738781 -63.175995
v -38.271305 22.561218 -63.175995
v -38.241863 22.500071 2.849307
v -38.241863 25.492258 2.849307
v -38.241863 22.500071 -63.193802
v -38.241863 25.492258 -63.193802
v 38.618137 22.500071 2.849306
v 38.618137 25.492258 2.849306
v 38.618137 22.500071 -63.193802
v 38.618137 25.492258 -63.193802
v 30.407503 18.396843 -59.362610
v 30.407503 18.396843 -63.175995
v 30.407503 -6.485478 -59.362610
v 30.407503 -6.485478 -63.175995
v -29.372503 -6.485478 -59.362610
v -29.372503 -6.485478 -63.176003
v -29.372503 18.396843 -59.362610
v -29.372503 18.396843 -63.176003
v -36.500134 -14.512333 -55.629208
v -36.500134 -7.626158 -55.629208
v -36.500134 -14.512333 -60.878216
v -36.500134 -7.626158 -60.878216
v 37.157375 -14.512333 -55.629204
v 37.157375 -7.626158 -55.629204
v 37.157375 -14.512333 -60.878216
v 37.157375 -7.626158 -60.878216
vt 0.375000 0.000000
vt 0.625000 0.000000
vt 0.625000 0.250000
vt 0.375000 0.250000
vt 0.625000 0.500000
vt 0.375000 0.500000
vt 0.625000 0.750000
vt 0.375000 0.750000
vt 0.625000 1.000000
vt 0.375000 1.000000
vt 0.125000 0.500000
vt 0.125000 0.750000
vt 0.875000 0.500000
vt 0.875000 0.750000
vt 0.375000 0.000000
vt 0.625000 0.000000
vt 0.625000 0.250000
vt 0.375000 0.250000
vt 0.625000 0.500000
vt 0.375000 0.500000
vt 0.625000 0.750000
vt 0.375000 0.750000
vt 0.625000 1.000000
vt 0.375000 1.000000
vt 0.125000 0.500000
vt 0.125000 0.750000
vt 0.875000 0.500000
vt 0.875000 0.750000
vt 0.375000 0.000000
vt 0.625000 0.000000
vt 0.625000 0.250000
vt 0.375000 0.250000
vt 0.625000 0.500000
vt 0.375000 0.500000
vt 0.625000 0.750000
vt 0.375000 0.750000
vt 0.625000 1.000000
vt 0.375000 1.000000
vt 0.125000 0.500000
vt 0.125000 0.750000
vt 0.875000 0.500000
vt 0.875000 0.750000
vt 0.375000 0.000000
vt 0.625000 0.000000
vt 0.597817 0.026611
vt 0.435400 0.026611
vt 0.435400 0.221055
vt 0.375000 0.250000
vt 0.625000 0.250000
vt 0.625000 0.500000
vt 0.375000 0.500000
vt 0.597817 0.528945
vt 0.435400 0.528945
vt 0.435400 0.723389
vt 0.375000 0.750000
vt 0.625000 0.750000
vt 0.625000 1.000000
vt 0.375000 1.000000
vt 0.125000 0.500000
vt 0.125000 0.750000
vt 0.875000 0.500000
vt 0.875000 0.750000
vt 0.375000 0.000000
vt 0.625000 0.000000
vt 0.625000 0.250000
vt 0.375000 0.250000
vt 0.625000 0.500000
vt 0.375000 0.500000
vt 0.625000 0.750000
vt 0.375000 0.750000
vt 0.625000 1.000000
vt 0.375000 1.000000
vt 0.125000 0.500000
vt 0.125000 0.750000
vt 0.875000 0.500000
vt 0.875000 0.750000
vt 0.375000 0.555684
vt 0.375000 0.641876
vt 0.625000 0.641876
vt 0.625000 0.555684
vt 0.597817 0.723389
vt 0.597817 0.221055
vt 0.375000 0.108124
vt 0.375000 0.194316
vt 0.625000 0.194316
vt 0.625000 0.108124
vt 0.125000 0.555684
vt 0.125000 0.641876
vt 0.875000 0.641876
vt 0.875000 0.555684
vt 0.375000 0.000000
vt 0.625000 0.000000
vt 0.625000 0.250000
vt 0.375000 0.250000
vt 0.625000 0.500000
vt 0.375000 0.500000
vt 0.625000 0.750000
vt 0.375000 0.750000
vt 0.125000 0.500000
vt 0.125000 0.750000
vn -0.0000 0.0000 -1.0000
vn 1.0000 0.0000 0.0000
vn 0.0000 0.0000 1.0000
vn -1.0000 0.0000 0.0000
vn 0.0000 -1.0000 0.0000
vn 0.0000 1.0000 0.0000
usemtl Material.001
s off
f 1/1/1 2/2/1 4/3/1 3/4/1
f 3/4/2 4/3/2 8/5/2 7/6/2
f 7/6/3 8/5/3 6/7/3 5/8/3
f 5/8/4 6/7/4 2/9/4 1/10/4
f 3/11/5 7/6/5 5/8/5 1/12/5
f 8/5/6 4/13/6 2/14/6 6/7/6
f 9/15/2 10/16/2 12/17/2 11/18/2
f 11/18/3 12/17/3 16/19/3 15/20/3
f 15/20/4 16/19/4 14/21/4 13/22/4
f 13/22/1 14/21/1 10/23/1 9/24/1
f 11/25/5 15/20/5 13/22/5 9/26/5
f 16/19/6 12/27/6 10/28/6 14/21/6
f 17/29/2 18/30/2 20/31/2 19/32/2
f 19/32/3 20/31/3 24/33/3 23/34/3
f 23/34/4 24/33/4 22/35/4 21/36/4
f 21/36/1 22/35/1 18/37/1 17/38/1
f 19/39/5 23/34/5 21/36/5 17/40/5
f 24/33/6 20/41/6 18/42/6 22/35/6
f 25/43/3 26/44/3 41/45/3 43/46/3 45/47/3 27/48/3
f 27/48/4 28/49/4 32/50/4 31/51/4
f 31/51/1 32/50/1 48/52/1 46/53/1 44/54/1 29/55/1
f 29/55/2 30/56/2 26/57/2 25/58/2
f 27/59/5 31/51/5 29/55/5 25/60/5
f 32/50/6 28/61/6 26/62/6 30/56/6
f 33/63/4 34/64/4 36/65/4 35/66/4
f 35/66/1 36/65/1 40/67/1 39/68/1
f 39/68/2 40/67/2 38/69/2 37/70/2
f 37/70/3 38/69/3 34/71/3 33/72/3
f 35/73/5 39/68/5 37/70/5 33/74/5
f 40/67/6 36/75/6 34/76/6 38/69/6
f 41/77/4 42/78/4 44/79/4 43/80/4
f 29/55/1 44/54/1 42/81/1 48/52/1 32/50/1 30/56/1
f 27/48/3 45/47/3 47/82/3 41/45/3 26/44/3 28/49/3
f 48/83/2 47/84/2 45/85/2 46/86/2
f 47/87/5 48/88/5 42/78/5 41/77/5
f 43/80/6 44/79/6 46/89/6 45/90/6
f 49/91/4 50/92/4 52/93/4 51/94/4
f 51/94/1 52/93/1 56/95/1 55/96/1
f 55/96/2 56/95/2 54/97/2 53/98/2
f 51/99/5 55/96/5 53/98/5 49/100/5
